STARTFONT 2.1
FONT -Hewlett Packard-User-Medium-R-Normal-Serif-23-180-72-72-M-120-HP-WA
SIZE 18 72 72
FONTBOUNDINGBOX 12 23 0 -7

STARTPROPERTIES 26
COPYRIGHT "(c)Copyright 1991, Hewlett Packard Company"
NOTICE "Hewlett Packard Co., 3000 Hanover St., Palo Alto, CA 94303, USA"
FONTNAME_REGISTRY ""
FOUNDRY "Hewlett Packard"
FAMILY_NAME "User"
WEIGHT_NAME "Medium"
SLANT "R"
ADD_STYLE_NAME "Serif"
SETWIDTH_NAME "Normal"
PIXEL_SIZE 23
POINT_SIZE 180
RESOLUTION_X 72
RESOLUTION_Y 72
SPACING "M"
AVERAGE_WIDTH 120
CHARSET_REGISTRY "HP"
CHARSET_ENCODING "WA"
CHARSET_COLLECTIONS "HP-WA"
FULL_NAME "User12x23"
CAP_HEIGHT 12
X_HEIGHT 8
WEIGHT 10
QUAD_WIDTH 12
DEFAULT_CHAR 32
FONT_DESCENT 7
FONT_ASCENT 16
ENDPROPERTIES

CHARS 235

STARTCHAR Kasratan
ENCODING 16
SWIDTH 857 0
DWIDTH 12 0
BBX 12 23 0 -7
BITMAP
0000
0000
0000
0000
0000
0000
0000
0000
0000
0000
0000
0000
0000
0100
0200
0600
0600
0600
0F00
33F0
CDF0
3000
C000
ENDCHAR

STARTCHAR Desc
ENCODING 17
SWIDTH 857 0
DWIDTH 12 0
BBX 12 23 0 -7
BITMAP
0000
0000
0000
0060
0180
0600
0020
00A0
02A0
02C0
0300
0000
0000
0100
0200
0600
0600
0600
0700
03F0
01F0
0000
0000
ENDCHAR

STARTCHAR Desc
ENCODING 18
SWIDTH 857 0
DWIDTH 12 0
BBX 12 23 0 -7
BITMAP
0000
0060
00A0
00E0
0070
01C0
0710
0050
0150
0160
0180
0000
0000
0100
0200
0600
0600
0600
0700
03F0
01F0
0000
0000
ENDCHAR

STARTCHAR Desc
ENCODING 19
SWIDTH 857 0
DWIDTH 12 0
BBX 12 23 0 -7
BITMAP
0000
0000
0000
0020
00A0
02A0
02C0
0300
0030
00C0
0300
0000
0000
0100
0200
0600
0600
0600
0700
03F0
01F0
0000
0000
ENDCHAR

STARTCHAR Desc
ENCODING 20
SWIDTH 857 0
DWIDTH 12 0
BBX 12 23 0 -7
BITMAP
0000
0000
0000
0000
0000
0000
0000
0030
00C0
0300
0000
0000
0000
0100
0200
0600
0600
0600
0700
03F0
01F0
0000
0000
ENDCHAR

STARTCHAR Desc
ENCODING 21
SWIDTH 857 0
DWIDTH 12 0
BBX 12 23 0 -7
BITMAP
0000
0000
0000
0000
0060
00A0
00E0
0070
01C0
0700
0000
0000
0000
0100
0200
0600
0600
0600
0700
03F0
01F0
0000
0000
ENDCHAR

STARTCHAR Kasra
ENCODING 22
SWIDTH 857 0
DWIDTH 12 0
BBX 12 23 0 -7
BITMAP
0000
0000
0000
0000
0000
0000
0000
0000
0000
0000
0000
0000
0000
0100
0200
0600
0600
0600
0700
03F0
0DF0
3000
C000
ENDCHAR

STARTCHAR Desc
ENCODING 23
SWIDTH 857 0
DWIDTH 12 0
BBX 12 23 0 -7
BITMAP
0000
0000
0000
0000
0000
0060
0090
0090
0060
0000
0000
0000
0000
0100
0200
0600
0600
0600
0700
03F0
01F0
0000
0000
ENDCHAR

STARTCHAR Desc
ENCODING 24
SWIDTH 857 0
DWIDTH 12 0
BBX 12 23 0 -7
BITMAP
0000
0000
0000
0000
0000
0010
0050
0150
0160
0180
0000
0000
0000
0100
0200
0600
0600
0600
0700
03F0
01F0
0000
0000
ENDCHAR

STARTCHAR Ain
ENCODING 25
SWIDTH 857 0
DWIDTH 12 0
BBX 12 23 0 -7
BITMAP
0000
0000
0000
0000
0000
0000
0000
0000
0000
0700
0F80
1F80
0700
0DC0
18F0
1870
3000
3000
3000
3000
1820
1FC0
0F80
ENDCHAR

STARTCHAR Intl
ENCODING 26
SWIDTH 857 0
DWIDTH 12 0
BBX 12 23 0 -7
BITMAP
0000
0000
0000
0200
0600
0E00
0E00
0700
0600
0600
0600
0600
0600
0E00
FC00
F800
0000
0000
0000
0000
0000
0000
0000
ENDCHAR

STARTCHAR Lam
ENCODING 28
SWIDTH 857 0
DWIDTH 12 0
BBX 12 23 0 -7
BITMAP
0000
0000
0000
0020
6060
7060
7860
3CE0
06E0
06E0
03E0
03E0
0360
0370
0630
1C10
7000
0000
0000
0000
0000
0000
0000
ENDCHAR

STARTCHAR Heh
ENCODING 29
SWIDTH 857 0
DWIDTH 12 0
BBX 12 23 0 -7
BITMAP
0000
0000
0000
0000
0000
0200
0200
0600
0F00
1B00
3300
6180
7F80
7FC0
3CF0
0070
0000
0000
0000
0000
0000
0000
0000
ENDCHAR

STARTCHAR PrintableSpace
ENCODING 32
SWIDTH 875 0
DWIDTH 12 0
BBX 12 23 0 -7
BITMAP
0000
0000
0000
0000
0000
0000
0000
0000
0000
0000
0000
0000
0000
0000
0000
0000
0000
0000
0000
0000
0000
0000
0000
ENDCHAR

STARTCHAR Exclamation
ENCODING 33
SWIDTH 875 0
DWIDTH 12 0
BBX 12 23 0 -7
BITMAP
0000
0000
0000
0600
0600
0600
0600
0600
0600
0600
0600
0600
0000
0000
0600
0F00
0600
0000
0000
0000
0000
0000
0000
ENDCHAR

STARTCHAR NeutrlDblQuote
ENCODING 34
SWIDTH 875 0
DWIDTH 12 0
BBX 12 23 0 -7
BITMAP
0000
0000
0000
1B00
1B00
1B00
1B00
1B00
0000
0000
0000
0000
0000
0000
0000
0000
0000
0000
0000
0000
0000
0000
0000
ENDCHAR

STARTCHAR NumberSign
ENCODING 35
SWIDTH 875 0
DWIDTH 12 0
BBX 12 23 0 -7
BITMAP
0000
0000
0000
1980
1980
1980
7FE0
7FE0
1980
1980
1980
7FE0
7FE0
1980
1980
1980
1980
0000
0000
0000
0000
0000
0000
ENDCHAR

STARTCHAR DollarSign
ENCODING 36
SWIDTH 875 0
DWIDTH 12 0
BBX 12 23 0 -7
BITMAP
0000
0000
0000
0600
0FC0
18C0
3040
3000
3800
1E00
0780
01C0
00C0
20C0
3180
3F00
0600
0000
0000
0000
0000
0000
0000
ENDCHAR

STARTCHAR PerCentSign
ENCODING 37
SWIDTH 875 0
DWIDTH 12 0
BBX 12 23 0 -7
BITMAP
0000
0000
0000
78C0
CCC0
CD80
CD80
7B00
0600
0600
0C00
0C00
1BC0
3660
3660
6660
63C0
0000
0000
0000
0000
0000
0000
ENDCHAR

STARTCHAR Ampersand
ENCODING 38
SWIDTH 875 0
DWIDTH 12 0
BBX 12 23 0 -7
BITMAP
0000
0000
0000
0E00
1B00
1100
1100
1100
1B00
0E00
1EE0
3340
3340
31C0
3080
19C0
0F60
0000
0000
0000
0000
0000
0000
ENDCHAR

STARTCHAR SingleCloseQut
ENCODING 39
SWIDTH 875 0
DWIDTH 12 0
BBX 12 23 0 -7
BITMAP
0000
0000
0000
0E00
0E00
0E00
0600
0C00
1800
0000
0000
0000
0000
0000
0000
0000
0000
0000
0000
0000
0000
0000
0000
ENDCHAR

STARTCHAR OpenParen
ENCODING 40
SWIDTH 875 0
DWIDTH 12 0
BBX 12 23 0 -7
BITMAP
0000
0000
0000
0300
0600
0C00
0C00
1800
1800
1800
1800
1800
1800
0C00
0C00
0600
0300
0000
0000
0000
0000
0000
0000
ENDCHAR

STARTCHAR CloseParen
ENCODING 41
SWIDTH 875 0
DWIDTH 12 0
BBX 12 23 0 -7
BITMAP
0000
0000
0000
1800
0C00
0600
0600
0300
0300
0300
0300
0300
0300
0600
0600
0C00
1800
0000
0000
0000
0000
0000
0000
ENDCHAR

STARTCHAR Asterisk
ENCODING 42
SWIDTH 875 0
DWIDTH 12 0
BBX 12 23 0 -7
BITMAP
0000
0000
0000
0000
0000
0000
0600
36C0
36C0
0F00
0F00
36C0
36C0
0600
0000
0000
0000
0000
0000
0000
0000
0000
0000
ENDCHAR

STARTCHAR PlusSign
ENCODING 43
SWIDTH 875 0
DWIDTH 12 0
BBX 12 23 0 -7
BITMAP
0000
0000
0000
0000
0000
0600
0600
0600
0600
7FE0
7FE0
0600
0600
0600
0600
0000
0000
0000
0000
0000
0000
0000
0000
ENDCHAR

STARTCHAR Comma
ENCODING 44
SWIDTH 875 0
DWIDTH 12 0
BBX 12 23 0 -7
BITMAP
0000
0000
0000
0000
0000
0000
0000
0000
0000
0000
0000
0000
0000
0E00
0E00
0E00
0600
0C00
1800
0000
0000
0000
0000
ENDCHAR

STARTCHAR Hyphen
ENCODING 45
SWIDTH 875 0
DWIDTH 12 0
BBX 12 23 0 -7
BITMAP
0000
0000
0000
0000
0000
0000
0000
0000
0000
7FE0
7FE0
0000
0000
0000
0000
0000
0000
0000
0000
0000
0000
0000
0000
ENDCHAR

STARTCHAR Period
ENCODING 46
SWIDTH 875 0
DWIDTH 12 0
BBX 12 23 0 -7
BITMAP
0000
0000
0000
0000
0000
0000
0000
0000
0000
0000
0000
0000
0000
0E00
0E00
0E00
0000
0000
0000
0000
0000
0000
0000
ENDCHAR

STARTCHAR Slash
ENCODING 47
SWIDTH 875 0
DWIDTH 12 0
BBX 12 23 0 -7
BITMAP
0000
0000
0000
0180
0180
0300
0300
0600
0600
0C00
0C00
1800
1800
3000
3000
6000
6000
0000
0000
0000
0000
0000
0000
ENDCHAR

STARTCHAR Zero
ENCODING 48
SWIDTH 875 0
DWIDTH 12 0
BBX 12 23 0 -7
BITMAP
0000
0000
0000
0000
0E00
3180
3180
60C0
60C0
64C0
64C0
60C0
60C0
3180
3180
0E00
0000
0000
0000
0000
0000
0000
0000
ENDCHAR

STARTCHAR One
ENCODING 49
SWIDTH 875 0
DWIDTH 12 0
BBX 12 23 0 -7
BITMAP
0000
0000
0000
0000
0600
1E00
3600
0600
0600
0600
0600
0600
0600
0600
0600
0600
0000
0000
0000
0000
0000
0000
0000
ENDCHAR

STARTCHAR Two
ENCODING 50
SWIDTH 875 0
DWIDTH 12 0
BBX 12 23 0 -7
BITMAP
0000
0000
0000
0000
0F00
1980
30C0
30C0
00C0
0180
0300
0600
0C00
1800
3040
3FC0
0000
0000
0000
0000
0000
0000
0000
ENDCHAR

STARTCHAR Three
ENCODING 51
SWIDTH 875 0
DWIDTH 12 0
BBX 12 23 0 -7
BITMAP
0000
0000
0000
0000
0F00
1980
30C0
00C0
0180
0700
0180
00C0
00C0
00C0
3180
1F00
0000
0000
0000
0000
0000
0000
0000
ENDCHAR

STARTCHAR Four
ENCODING 52
SWIDTH 875 0
DWIDTH 12 0
BBX 12 23 0 -7
BITMAP
0000
0000
0000
0000
0200
0600
0400
0C00
0980
1980
1180
3180
3FC0
0180
0180
0180
0000
0000
0000
0000
0000
0000
0000
ENDCHAR

STARTCHAR Five
ENCODING 53
SWIDTH 875 0
DWIDTH 12 0
BBX 12 23 0 -7
BITMAP
0000
0000
0000
0000
1FC0
1800
1800
1800
1F00
0180
00C0
00C0
00C0
00C0
3180
1F00
0000
0000
0000
0000
0000
0000
0000
ENDCHAR

STARTCHAR Six
ENCODING 54
SWIDTH 875 0
DWIDTH 12 0
BBX 12 23 0 -7
BITMAP
0000
0000
0000
0000
0380
0C00
1800
1000
3700
3980
30C0
30C0
30C0
30C0
1980
0F00
0000
0000
0000
0000
0000
0000
0000
ENDCHAR

STARTCHAR Seven
ENCODING 55
SWIDTH 875 0
DWIDTH 12 0
BBX 12 23 0 -7
BITMAP
0000
0000
0000
0000
3FC0
00C0
0180
0180
0300
0300
0600
0600
0600
0C00
0C00
0C00
0000
0000
0000
0000
0000
0000
0000
ENDCHAR

STARTCHAR Eight
ENCODING 56
SWIDTH 875 0
DWIDTH 12 0
BBX 12 23 0 -7
BITMAP
0000
0000
0000
0000
0F00
1980
30C0
30C0
1980
0F00
1980
30C0
30C0
30C0
1980
0F00
0000
0000
0000
0000
0000
0000
0000
ENDCHAR

STARTCHAR Nine
ENCODING 57
SWIDTH 875 0
DWIDTH 12 0
BBX 12 23 0 -7
BITMAP
0000
0000
0000
0000
0F00
1980
30C0
30C0
30C0
30C0
19C0
0EC0
0080
0180
0300
1C00
0000
0000
0000
0000
0000
0000
0000
ENDCHAR

STARTCHAR Colon
ENCODING 58
SWIDTH 875 0
DWIDTH 12 0
BBX 12 23 0 -7
BITMAP
0000
0000
0000
0000
0000
0000
0000
0000
0E00
0E00
0E00
0000
0000
0E00
0E00
0E00
0000
0000
0000
0000
0000
0000
0000
ENDCHAR

STARTCHAR Simicolon
ENCODING 59
SWIDTH 875 0
DWIDTH 12 0
BBX 12 23 0 -7
BITMAP
0000
0000
0000
0000
0000
0000
0000
0000
0E00
0E00
0E00
0000
0000
0E00
0E00
0E00
0600
0C00
1800
0000
0000
0000
0000
ENDCHAR

STARTCHAR LessThanSign
ENCODING 60
SWIDTH 875 0
DWIDTH 12 0
BBX 12 23 0 -7
BITMAP
0000
0000
0000
0000
0000
0060
01E0
0780
1E00
7800
7800
1E00
0780
01E0
0060
0000
0000
0000
0000
0000
0000
0000
0000
ENDCHAR

STARTCHAR EqualsSign
ENCODING 61
SWIDTH 875 0
DWIDTH 12 0
BBX 12 23 0 -7
BITMAP
0000
0000
0000
0000
0000
0000
0000
7FE0
7FE0
0000
0000
7FE0
7FE0
0000
0000
0000
0000
0000
0000
0000
0000
0000
0000
ENDCHAR

STARTCHAR GreatrThanSign
ENCODING 62
SWIDTH 875 0
DWIDTH 12 0
BBX 12 23 0 -7
BITMAP
0000
0000
0000
0000
0000
6000
7800
1E00
0780
01E0
01E0
0780
1E00
7800
6000
0000
0000
0000
0000
0000
0000
0000
0000
ENDCHAR

STARTCHAR QuestionMark
ENCODING 63
SWIDTH 875 0
DWIDTH 12 0
BBX 12 23 0 -7
BITMAP
0000
0000
0000
1F00
3380
31C0
31C0
01C0
0380
0700
0C00
0C00
0000
0000
0C00
1E00
0C00
0000
0000
0000
0000
0000
0000
ENDCHAR

STARTCHAR CommerclAtSign
ENCODING 64
SWIDTH 875 0
DWIDTH 12 0
BBX 12 23 0 -7
BITMAP
0000
0000
0000
0F00
39C0
30C0
6060
6720
6DA0
6DA0
6DA0
6DA0
66C0
6000
3060
38C0
0F80
0000
0000
0000
0000
0000
0000
ENDCHAR

STARTCHAR A
ENCODING 65
SWIDTH 875 0
DWIDTH 12 0
BBX 12 23 0 -7
BITMAP
0000
0000
0000
0000
0600
0600
0F00
0F00
0900
1980
1180
1F80
30C0
20C0
2040
70E0
0000
0000
0000
0000
0000
0000
0000
ENDCHAR

STARTCHAR B
ENCODING 66
SWIDTH 875 0
DWIDTH 12 0
BBX 12 23 0 -7
BITMAP
0000
0000
0000
0000
7F00
3180
3180
3180
3300
3F00
3180
30C0
30C0
30C0
3180
7F00
0000
0000
0000
0000
0000
0000
0000
ENDCHAR

STARTCHAR C
ENCODING 67
SWIDTH 875 0
DWIDTH 12 0
BBX 12 23 0 -7
BITMAP
0000
0000
0000
0000
0FC0
38C0
30C0
6000
6000
6000
6000
6000
6000
3040
38C0
0F80
0000
0000
0000
0000
0000
0000
0000
ENDCHAR

STARTCHAR D
ENCODING 68
SWIDTH 875 0
DWIDTH 12 0
BBX 12 23 0 -7
BITMAP
0000
0000
0000
0000
7F00
31C0
30C0
3060
3060
3060
3060
3060
3060
30C0
31C0
7F00
0000
0000
0000
0000
0000
0000
0000
ENDCHAR

STARTCHAR E
ENCODING 69
SWIDTH 875 0
DWIDTH 12 0
BBX 12 23 0 -7
BITMAP
0000
0000
0000
0000
3FC0
1840
1840
1800
1900
1F00
1900
1800
1800
1840
1840
3FC0
0000
0000
0000
0000
0000
0000
0000
ENDCHAR

STARTCHAR F
ENCODING 70
SWIDTH 875 0
DWIDTH 12 0
BBX 12 23 0 -7
BITMAP
0000
0000
0000
0000
3FC0
1840
1840
1800
1900
1F00
1900
1800
1800
1800
1800
3E00
0000
0000
0000
0000
0000
0000
0000
ENDCHAR

STARTCHAR G
ENCODING 71
SWIDTH 875 0
DWIDTH 12 0
BBX 12 23 0 -7
BITMAP
0000
0000
0000
0000
0FC0
38C0
30C0
6000
6000
6000
6000
61E0
60C0
30C0
39C0
0F00
0000
0000
0000
0000
0000
0000
0000
ENDCHAR

STARTCHAR H
ENCODING 72
SWIDTH 875 0
DWIDTH 12 0
BBX 12 23 0 -7
BITMAP
0000
0000
0000
0000
79E0
30C0
30C0
30C0
30C0
3FC0
30C0
30C0
30C0
30C0
30C0
79E0
0000
0000
0000
0000
0000
0000
0000
ENDCHAR

STARTCHAR I
ENCODING 73
SWIDTH 875 0
DWIDTH 12 0
BBX 12 23 0 -7
BITMAP
0000
0000
0000
0000
1F80
0600
0600
0600
0600
0600
0600
0600
0600
0600
0600
1F80
0000
0000
0000
0000
0000
0000
0000
ENDCHAR

STARTCHAR J
ENCODING 74
SWIDTH 875 0
DWIDTH 12 0
BBX 12 23 0 -7
BITMAP
0000
0000
0000
0000
07C0
0180
0180
0180
0180
0180
0180
0180
6180
6180
3300
1E00
0000
0000
0000
0000
0000
0000
0000
ENDCHAR

STARTCHAR K
ENCODING 75
SWIDTH 875 0
DWIDTH 12 0
BBX 12 23 0 -7
BITMAP
0000
0000
0000
0000
79E0
30C0
3180
3300
3600
3E00
3B00
3300
3180
3180
30C0
78E0
0000
0000
0000
0000
0000
0000
0000
ENDCHAR

STARTCHAR L
ENCODING 76
SWIDTH 875 0
DWIDTH 12 0
BBX 12 23 0 -7
BITMAP
0000
0000
0000
0000
7800
3000
3000
3000
3000
3000
3000
3000
3000
3040
3040
7FC0
0000
0000
0000
0000
0000
0000
0000
ENDCHAR

STARTCHAR M
ENCODING 77
SWIDTH 875 0
DWIDTH 12 0
BBX 12 23 0 -7
BITMAP
0000
0000
0000
0000
E070
6060
70E0
70E0
79E0
6960
6F60
6660
6660
6060
6060
F0F0
0000
0000
0000
0000
0000
0000
0000
ENDCHAR

STARTCHAR N
ENCODING 78
SWIDTH 875 0
DWIDTH 12 0
BBX 12 23 0 -7
BITMAP
0000
0000
0000
0000
71E0
38C0
38C0
3CC0
34C0
36C0
32C0
33C0
31C0
31C0
30C0
78C0
0000
0000
0000
0000
0000
0000
0000
ENDCHAR

STARTCHAR O
ENCODING 79
SWIDTH 875 0
DWIDTH 12 0
BBX 12 23 0 -7
BITMAP
0000
0000
0000
0000
0F00
39C0
30C0
6060
6060
6060
6060
6060
6060
30C0
39C0
0F00
0000
0000
0000
0000
0000
0000
0000
ENDCHAR

STARTCHAR P
ENCODING 80
SWIDTH 875 0
DWIDTH 12 0
BBX 12 23 0 -7
BITMAP
0000
0000
0000
0000
7F00
3180
30C0
30C0
30C0
3180
3F00
3000
3000
3000
3000
7C00
0000
0000
0000
0000
0000
0000
0000
ENDCHAR

STARTCHAR Q
ENCODING 81
SWIDTH 875 0
DWIDTH 12 0
BBX 12 23 0 -7
BITMAP
0000
0000
0000
0000
0F00
39C0
30C0
6060
6060
6060
6060
6060
6060
30C0
3DC0
0F00
0300
0180
00C0
0000
0000
0000
0000
ENDCHAR

STARTCHAR R
ENCODING 82
SWIDTH 875 0
DWIDTH 12 0
BBX 12 23 0 -7
BITMAP
0000
0000
0000
0000
7F00
3180
3180
3180
3180
3F00
3300
3300
3180
3180
30C0
78E0
0000
0000
0000
0000
0000
0000
0000
ENDCHAR

STARTCHAR S
ENCODING 83
SWIDTH 875 0
DWIDTH 12 0
BBX 12 23 0 -7
BITMAP
0000
0000
0000
0000
0FC0
18C0
3040
3000
3800
1E00
0780
01C0
00C0
20C0
3180
3F00
0000
0000
0000
0000
0000
0000
0000
ENDCHAR

STARTCHAR T
ENCODING 84
SWIDTH 875 0
DWIDTH 12 0
BBX 12 23 0 -7
BITMAP
0000
0000
0000
0000
7FE0
4620
4620
0600
0600
0600
0600
0600
0600
0600
0600
1F80
0000
0000
0000
0000
0000
0000
0000
ENDCHAR

STARTCHAR U
ENCODING 85
SWIDTH 875 0
DWIDTH 12 0
BBX 12 23 0 -7
BITMAP
0000
0000
0000
0000
79E0
30C0
30C0
30C0
30C0
30C0
30C0
30C0
30C0
30C0
1980
0F00
0000
0000
0000
0000
0000
0000
0000
ENDCHAR

STARTCHAR V
ENCODING 86
SWIDTH 875 0
DWIDTH 12 0
BBX 12 23 0 -7
BITMAP
0000
0000
0000
0000
79E0
30C0
30C0
1880
1980
1980
0D00
0D00
0F00
0600
0600
0600
0000
0000
0000
0000
0000
0000
0000
ENDCHAR

STARTCHAR W
ENCODING 87
SWIDTH 875 0
DWIDTH 12 0
BBX 12 23 0 -7
BITMAP
0000
0000
0000
0000
F0F0
6060
6060
6660
6660
6F60
6F60
39C0
39C0
30C0
30C0
30C0
0000
0000
0000
0000
0000
0000
0000
ENDCHAR

STARTCHAR X
ENCODING 88
SWIDTH 875 0
DWIDTH 12 0
BBX 12 23 0 -7
BITMAP
0000
0000
0000
0000
79E0
30C0
1980
1900
0F00
0600
0F00
0B00
1980
1980
30C0
79E0
0000
0000
0000
0000
0000
0000
0000
ENDCHAR

STARTCHAR Y
ENCODING 89
SWIDTH 875 0
DWIDTH 12 0
BBX 12 23 0 -7
BITMAP
0000
0000
0000
0000
79E0
30C0
1880
1980
0D00
0F00
0600
0600
0600
0600
0600
1F80
0000
0000
0000
0000
0000
0000
0000
ENDCHAR

STARTCHAR Z
ENCODING 90
SWIDTH 875 0
DWIDTH 12 0
BBX 12 23 0 -7
BITMAP
0000
0000
0000
0000
3FC0
20C0
2180
0300
0300
0600
0C00
0C00
1800
3040
3040
3FC0
0000
0000
0000
0000
0000
0000
0000
ENDCHAR

STARTCHAR OpenBracket
ENCODING 91
SWIDTH 875 0
DWIDTH 12 0
BBX 12 23 0 -7
BITMAP
0000
0000
0000
0F80
0C00
0C00
0C00
0C00
0C00
0C00
0C00
0C00
0C00
0C00
0C00
0C00
0F80
0000
0000
0000
0000
0000
0000
ENDCHAR

STARTCHAR BackSlash
ENCODING 92
SWIDTH 875 0
DWIDTH 12 0
BBX 12 23 0 -7
BITMAP
0000
0000
0000
3000
3000
1800
1800
0C00
0C00
0600
0600
0300
0300
0180
0180
00C0
00C0
0000
0000
0000
0000
0000
0000
ENDCHAR

STARTCHAR CloseBracket
ENCODING 93
SWIDTH 875 0
DWIDTH 12 0
BBX 12 23 0 -7
BITMAP
0000
0000
0000
1F00
0300
0300
0300
0300
0300
0300
0300
0300
0300
0300
0300
0300
1F00
0000
0000
0000
0000
0000
0000
ENDCHAR

STARTCHAR Circumflex
ENCODING 94
SWIDTH 875 0
DWIDTH 12 0
BBX 12 23 0 -7
BITMAP
0000
0000
0000
0000
0400
0E00
1B00
2080
0000
0000
0000
0000
0000
0000
0000
0000
0000
0000
0000
0000
0000
0000
0000
ENDCHAR

STARTCHAR Underscore
ENCODING 95
SWIDTH 875 0
DWIDTH 12 0
BBX 12 23 0 -7
BITMAP
0000
0000
0000
0000
0000
0000
0000
0000
0000
0000
0000
0000
0000
0000
0000
0000
FFF0
FFF0
0000
0000
0000
0000
0000
ENDCHAR

STARTCHAR SingleOpenQuot
ENCODING 96
SWIDTH 875 0
DWIDTH 12 0
BBX 12 23 0 -7
BITMAP
0000
0000
0000
0300
0600
0C00
0E00
0E00
0E00
0000
0000
0000
0000
0000
0000
0000
0000
0000
0000
0000
0000
0000
0000
ENDCHAR

STARTCHAR a
ENCODING 97
SWIDTH 875 0
DWIDTH 12 0
BBX 12 23 0 -7
BITMAP
0000
0000
0000
0000
0000
0000
0000
0000
0F80
18C0
00C0
0FC0
18C0
30C0
31C0
1EE0
0000
0000
0000
0000
0000
0000
0000
ENDCHAR

STARTCHAR b
ENCODING 98
SWIDTH 875 0
DWIDTH 12 0
BBX 12 23 0 -7
BITMAP
0000
0000
0000
0000
3000
7000
3000
3000
3700
3980
30C0
30C0
30C0
30C0
3980
3700
0000
0000
0000
0000
0000
0000
0000
ENDCHAR

STARTCHAR c
ENCODING 99
SWIDTH 875 0
DWIDTH 12 0
BBX 12 23 0 -7
BITMAP
0000
0000
0000
0000
0000
0000
0000
0000
0FC0
18C0
30C0
3000
3000
3000
18C0
0F80
0000
0000
0000
0000
0000
0000
0000
ENDCHAR

STARTCHAR d
ENCODING 100
SWIDTH 875 0
DWIDTH 12 0
BBX 12 23 0 -7
BITMAP
0000
0000
0000
0000
00C0
01C0
00C0
00C0
0EC0
19C0
30C0
30C0
30C0
30C0
19C0
0EE0
0000
0000
0000
0000
0000
0000
0000
ENDCHAR

STARTCHAR e
ENCODING 101
SWIDTH 875 0
DWIDTH 12 0
BBX 12 23 0 -7
BITMAP
0000
0000
0000
0000
0000
0000
0000
0000
0F00
1980
30C0
3FC0
3000
3000
18C0
0F80
0000
0000
0000
0000
0000
0000
0000
ENDCHAR

STARTCHAR f
ENCODING 102
SWIDTH 875 0
DWIDTH 12 0
BBX 12 23 0 -7
BITMAP
0000
0000
0000
0000
0780
0C00
0C00
0C00
3F80
0C00
0C00
0C00
0C00
0C00
0C00
3F80
0000
0000
0000
0000
0000
0000
0000
ENDCHAR

STARTCHAR g
ENCODING 103
SWIDTH 875 0
DWIDTH 12 0
BBX 12 23 0 -7
BITMAP
0000
0000
0000
0000
0000
0000
0000
0000
1F60
3180
3180
3180
1F00
3000
1FC0
3060
3060
30C0
1F80
0000
0000
0000
0000
ENDCHAR

STARTCHAR h
ENCODING 104
SWIDTH 875 0
DWIDTH 12 0
BBX 12 23 0 -7
BITMAP
0000
0000
0000
0000
3000
7000
3000
3000
3780
38C0
30C0
30C0
30C0
30C0
30C0
79E0
0000
0000
0000
0000
0000
0000
0000
ENDCHAR

STARTCHAR i
ENCODING 105
SWIDTH 875 0
DWIDTH 12 0
BBX 12 23 0 -7
BITMAP
0000
0000
0000
0000
0400
0E00
0400
0000
0600
3E00
0600
0600
0600
0600
0600
3FC0
0000
0000
0000
0000
0000
0000
0000
ENDCHAR

STARTCHAR j
ENCODING 106
SWIDTH 875 0
DWIDTH 12 0
BBX 12 23 0 -7
BITMAP
0000
0000
0000
0000
0200
0700
0200
0000
0300
1F00
0300
0300
0300
0300
0300
0300
0300
6300
3E00
0000
0000
0000
0000
ENDCHAR

STARTCHAR k
ENCODING 107
SWIDTH 875 0
DWIDTH 12 0
BBX 12 23 0 -7
BITMAP
0000
0000
0000
0000
3000
7000
3000
3000
33C0
3100
3200
3400
3E00
3300
3180
78E0
0000
0000
0000
0000
0000
0000
0000
ENDCHAR

STARTCHAR l
ENCODING 108
SWIDTH 875 0
DWIDTH 12 0
BBX 12 23 0 -7
BITMAP
0000
0000
0000
0000
0600
1E00
0600
0600
0600
0600
0600
0600
0600
0600
0600
1F80
0000
0000
0000
0000
0000
0000
0000
ENDCHAR

STARTCHAR m
ENCODING 109
SWIDTH 875 0
DWIDTH 12 0
BBX 12 23 0 -7
BITMAP
0000
0000
0000
0000
0000
0000
0000
0000
6DC0
F760
6660
6660
6660
6660
6660
F6F0
0000
0000
0000
0000
0000
0000
0000
ENDCHAR

STARTCHAR n
ENCODING 110
SWIDTH 875 0
DWIDTH 12 0
BBX 12 23 0 -7
BITMAP
0000
0000
0000
0000
0000
0000
0000
0000
3780
78C0
30C0
30C0
30C0
30C0
30C0
79E0
0000
0000
0000
0000
0000
0000
0000
ENDCHAR

STARTCHAR o
ENCODING 111
SWIDTH 875 0
DWIDTH 12 0
BBX 12 23 0 -7
BITMAP
0000
0000
0000
0000
0000
0000
0000
0000
0F00
1980
30C0
30C0
30C0
30C0
1980
0F00
0000
0000
0000
0000
0000
0000
0000
ENDCHAR

STARTCHAR p
ENCODING 112
SWIDTH 875 0
DWIDTH 12 0
BBX 12 23 0 -7
BITMAP
0000
0000
0000
0000
0000
0000
0000
0000
3700
7980
30C0
30C0
30C0
30C0
3980
3700
3000
3000
7C00
0000
0000
0000
0000
ENDCHAR

STARTCHAR q
ENCODING 113
SWIDTH 875 0
DWIDTH 12 0
BBX 12 23 0 -7
BITMAP
0000
0000
0000
0000
0000
0000
0000
0000
1E80
3180
6180
6180
6180
6180
3380
1D80
0180
0180
07C0
0000
0000
0000
0000
ENDCHAR

STARTCHAR r
ENCODING 114
SWIDTH 875 0
DWIDTH 12 0
BBX 12 23 0 -7
BITMAP
0000
0000
0000
0000
0000
0000
0000
0000
19C0
3AC0
1C00
1800
1800
1800
1800
3E00
0000
0000
0000
0000
0000
0000
0000
ENDCHAR

STARTCHAR s
ENCODING 115
SWIDTH 875 0
DWIDTH 12 0
BBX 12 23 0 -7
BITMAP
0000
0000
0000
0000
0000
0000
0000
0000
1F80
30C0
3000
1E00
0380
00C0
30C0
1F80
0000
0000
0000
0000
0000
0000
0000
ENDCHAR

STARTCHAR t
ENCODING 116
SWIDTH 875 0
DWIDTH 12 0
BBX 12 23 0 -7
BITMAP
0000
0000
0000
0000
0000
1800
1800
1800
7F80
1800
1800
1800
1800
1800
18C0
0F80
0000
0000
0000
0000
0000
0000
0000
ENDCHAR

STARTCHAR u
ENCODING 117
SWIDTH 875 0
DWIDTH 12 0
BBX 12 23 0 -7
BITMAP
0000
0000
0000
0000
0000
0000
0000
0000
30C0
71C0
30C0
30C0
30C0
30C0
31E0
1EC0
0000
0000
0000
0000
0000
0000
0000
ENDCHAR

STARTCHAR v
ENCODING 118
SWIDTH 875 0
DWIDTH 12 0
BBX 12 23 0 -7
BITMAP
0000
0000
0000
0000
0000
0000
0000
0000
79E0
30C0
1880
1980
0D00
0F00
0600
0600
0000
0000
0000
0000
0000
0000
0000
ENDCHAR

STARTCHAR w
ENCODING 119
SWIDTH 875 0
DWIDTH 12 0
BBX 12 23 0 -7
BITMAP
0000
0000
0000
0000
0000
0000
0000
0000
E0E0
4040
64C0
64C0
2E80
3B80
3180
3180
0000
0000
0000
0000
0000
0000
0000
ENDCHAR

STARTCHAR x
ENCODING 120
SWIDTH 875 0
DWIDTH 12 0
BBX 12 23 0 -7
BITMAP
0000
0000
0000
0000
0000
0000
0000
0000
7BC0
3180
1B00
0E00
0E00
1B00
3180
7BC0
0000
0000
0000
0000
0000
0000
0000
ENDCHAR

STARTCHAR y
ENCODING 121
SWIDTH 875 0
DWIDTH 12 0
BBX 12 23 0 -7
BITMAP
0000
0000
0000
0000
0000
0000
0000
0000
79E0
30C0
1880
1980
0D00
0F00
0600
0600
0C00
6800
7000
0000
0000
0000
0000
ENDCHAR

STARTCHAR z
ENCODING 122
SWIDTH 875 0
DWIDTH 12 0
BBX 12 23 0 -7
BITMAP
0000
0000
0000
0000
0000
0000
0000
0000
3F80
2180
0300
0600
0C00
1800
3080
3F80
0000
0000
0000
0000
0000
0000
0000
ENDCHAR

STARTCHAR OpenBrace
ENCODING 123
SWIDTH 875 0
DWIDTH 12 0
BBX 12 23 0 -7
BITMAP
0000
0000
0000
0380
0600
0600
0600
0600
0C00
3800
0C00
0600
0600
0600
0600
0600
0380
0000
0000
0000
0000
0000
0000
ENDCHAR

STARTCHAR LongVertMark
ENCODING 124
SWIDTH 875 0
DWIDTH 12 0
BBX 12 23 0 -7
BITMAP
0000
0000
0000
0600
0600
0600
0600
0600
0600
0600
0600
0600
0600
0600
0600
0600
0600
0000
0000
0000
0000
0000
0000
ENDCHAR

STARTCHAR CloseBrace
ENCODING 125
SWIDTH 875 0
DWIDTH 12 0
BBX 12 23 0 -7
BITMAP
0000
0000
0000
1C00
0600
0600
0600
0600
0300
01C0
0300
0600
0600
0600
0600
0600
1C00
0000
0000
0000
0000
0000
0000
ENDCHAR

STARTCHAR OneWavyLine
ENCODING 126
SWIDTH 875 0
DWIDTH 12 0
BBX 12 23 0 -7
BITMAP
0000
0000
0000
0000
0000
0000
0000
0000
3840
7E40
4FC0
4380
0000
0000
0000
0000
0000
0000
0000
0000
0000
0000
0000
ENDCHAR

STARTCHAR Khah
ENCODING 127
SWIDTH 857 0
DWIDTH 12 0
BBX 12 23 0 -7
BITMAP
0000
0000
0000
0000
1000
3800
1000
0000
0000
3800
7E00
4F80
03E0
1FE0
FE00
E000
0000
0000
0000
0000
0000
0000
0000
ENDCHAR

STARTCHAR Lam
ENCODING 128
SWIDTH 857 0
DWIDTH 12 0
BBX 12 23 0 -7
BITMAP
6000
8000
D000
6020
C060
7060
7860
3CE0
06E0
06E0
03E0
03E0
0360
0370
0670
1C30
7000
0000
0000
0000
0000
0000
0000
ENDCHAR

STARTCHAR Line
ENCODING 129
SWIDTH 857 0
DWIDTH 12 0
BBX 12 23 0 -7
BITMAP
0000
0000
0000
0000
0000
0000
0000
0000
0000
0000
0100
0200
0200
0300
03F0
01F0
0000
0000
0000
0000
0000
0000
0000
ENDCHAR

STARTCHAR Descender
ENCODING 130
SWIDTH 857 0
DWIDTH 12 0
BBX 12 23 0 -7
BITMAP
0000
0000
0000
0000
0000
0000
0000
0000
0000
0000
0000
0000
0000
0100
0200
0600
0600
0600
0700
03F0
01F0
0000
0000
ENDCHAR

STARTCHAR Alef
ENCODING 131
SWIDTH 857 0
DWIDTH 12 0
BBX 12 23 0 -7
BITMAP
0C00
3000
CC00
3200
C600
0600
0600
0600
0600
0600
0600
0600
0600
0700
03F0
01F0
0000
0000
0000
0000
0000
0000
0000
ENDCHAR

STARTCHAR Line
ENCODING 132
SWIDTH 857 0
DWIDTH 12 0
BBX 12 23 0 -7
BITMAP
0000
0000
0000
0060
00A0
0CE0
1670
05C0
0700
0C00
0100
0200
0200
0300
03F0
01F0
0000
0000
0000
0000
0000
0000
0000
ENDCHAR

STARTCHAR Kasratan
ENCODING 133
SWIDTH 857 0
DWIDTH 12 0
BBX 12 23 0 -7
BITMAP
0000
0000
0000
0000
0000
0000
0000
0000
0000
0000
0100
0200
0200
0300
03F0
01F0
0000
0030
00C0
0330
00C0
0300
0000
ENDCHAR

STARTCHAR Line
ENCODING 134
SWIDTH 857 0
DWIDTH 12 0
BBX 12 23 0 -7
BITMAP
0000
0060
0180
0600
0020
00A0
02A0
02C0
0300
0000
0100
0200
0200
0300
03F0
01F0
0000
0000
0000
0000
0000
0000
0000
ENDCHAR

STARTCHAR Line
ENCODING 135
SWIDTH 857 0
DWIDTH 12 0
BBX 12 23 0 -7
BITMAP
0180
0280
0380
01C0
0700
1C40
0140
0540
0580
0600
0100
0200
0200
0300
03F0
01F0
0000
0000
0000
0000
0000
0000
0000
ENDCHAR

STARTCHAR Line
ENCODING 136
SWIDTH 857 0
DWIDTH 12 0
BBX 12 23 0 -7
BITMAP
0000
0020
00A0
02A0
02C0
0300
0030
00C0
0300
0000
0100
0200
0200
0300
03F0
01F0
0000
0000
0000
0000
0000
0000
0000
ENDCHAR

STARTCHAR Line
ENCODING 137
SWIDTH 857 0
DWIDTH 12 0
BBX 12 23 0 -7
BITMAP
0000
0000
0000
0000
0000
0030
00C0
0300
0000
0000
0100
0200
0200
0300
03F0
01F0
0000
0000
0000
0000
0000
0000
0000
ENDCHAR

STARTCHAR Line
ENCODING 138
SWIDTH 857 0
DWIDTH 12 0
BBX 12 23 0 -7
BITMAP
0000
0000
0000
0060
00A0
00E0
0070
01C0
0700
0000
0100
0200
0200
0300
03F0
01F0
0000
0000
0000
0000
0000
0000
0000
ENDCHAR

STARTCHAR Kasra
ENCODING 139
SWIDTH 857 0
DWIDTH 12 0
BBX 12 23 0 -7
BITMAP
0000
0000
0000
0000
0000
0000
0000
0000
0000
0000
0100
0200
0200
0300
03F0
01F0
0000
0000
0030
00C0
0300
0000
0000
ENDCHAR

STARTCHAR Line
ENCODING 140
SWIDTH 857 0
DWIDTH 12 0
BBX 12 23 0 -7
BITMAP
0000
0000
0000
0000
0060
0090
0090
0060
0000
0000
0100
0200
0200
0300
03F0
01F0
0000
0000
0000
0000
0000
0000
0000
ENDCHAR

STARTCHAR Line
ENCODING 141
SWIDTH 857 0
DWIDTH 12 0
BBX 12 23 0 -7
BITMAP
0000
0000
0000
0010
0050
0150
0160
0180
0000
0000
0100
0200
0200
0300
03F0
01F0
0000
0000
0000
0000
0000
0000
0000
ENDCHAR

STARTCHAR Alef
ENCODING 142
SWIDTH 857 0
DWIDTH 12 0
BBX 12 23 0 -7
BITMAP
0180
0600
1980
0600
1900
0300
0300
0300
0300
0300
0300
0300
0300
0300
0300
0300
0200
0000
0000
0000
0000
0000
0000
ENDCHAR

STARTCHAR Desc
ENCODING 143
SWIDTH 857 0
DWIDTH 12 0
BBX 12 23 0 -7
BITMAP
0000
0000
0000
0000
0000
00C0
0140
19C0
2CE0
0B80
0E00
1800
0000
0100
0200
0600
0600
0600
0700
03F0
01F0
0000
0000
ENDCHAR

STARTCHAR Jeem
ENCODING 144
SWIDTH 857 0
DWIDTH 12 0
BBX 12 23 0 -7
BITMAP
0000
0000
0000
0000
0000
0000
0000
0000
0000
3C00
7F00
8FE0
1FC0
3800
7000
6200
6700
6200
6000
7020
3FC0
1F00
0000
ENDCHAR

STARTCHAR Hah
ENCODING 145
SWIDTH 857 0
DWIDTH 12 0
BBX 12 23 0 -7
BITMAP
0000
0000
0000
0000
0000
0000
0000
0000
0000
3C00
7F00
8FE0
1FC0
3800
7000
6000
6000
6000
6000
7020
3FC0
1F00
0000
ENDCHAR

STARTCHAR Kha
ENCODING 146
SWIDTH 857 0
DWIDTH 12 0
BBX 12 23 0 -7
BITMAP
0000
0000
0000
0000
0000
0200
0700
0200
0000
3C00
7F00
8FE0
1FC0
3800
7000
6000
6000
6000
6000
7020
3FC0
1F00
0000
ENDCHAR

STARTCHAR Teh
ENCODING 147
SWIDTH 857 0
DWIDTH 12 0
BBX 12 23 0 -7
BITMAP
0000
0200
1700
3A00
1000
0100
0100
0300
0700
0D80
1980
30C0
3FC0
3FE0
1E70
0030
0000
0000
0000
0000
0000
0000
0000
ENDCHAR

STARTCHAR Alef
ENCODING 148
SWIDTH 857 0
DWIDTH 12 0
BBX 12 23 0 -7
BITMAP
0000
0000
0000
0200
0600
0600
0600
0600
0600
0600
0600
0600
0600
0700
03F0
01F0
0000
0000
0000
0000
0000
0000
0000
ENDCHAR

STARTCHAR Yeh
ENCODING 149
SWIDTH 857 0
DWIDTH 12 0
BBX 12 23 0 -7
BITMAP
0000
0000
0000
0000
0000
0000
0000
0000
0000
0000
0000
0000
1000
2000
20F0
41F0
4180
41C0
40E0
60E0
7FC0
3F80
1B00
ENDCHAR

STARTCHAR Yeh
ENCODING 150
SWIDTH 857 0
DWIDTH 12 0
BBX 12 23 0 -7
BITMAP
0000
0000
0000
0000
0000
0000
0380
0600
06C0
0380
0E00
0000
1000
2000
20F0
41F0
4180
41C0
40E0
60E0
7FC0
3F80
0000
ENDCHAR

STARTCHAR Alef
ENCODING 151
SWIDTH 857 0
DWIDTH 12 0
BBX 12 23 0 -7
BITMAP
0000
0000
0000
0000
0000
0000
0000
0000
0000
0000
0000
0000
1000
2000
20F0
41F0
4180
41C0
40E0
60E0
7FC0
3F80
0000
ENDCHAR

STARTCHAR Lam
ENCODING 152
SWIDTH 857 0
DWIDTH 12 0
BBX 12 23 0 -7
BITMAP
7000
C000
D800
7040
C0C0
70E0
7840
3840
0C40
06C0
02C0
0380
0380
06C0
1CC0
1F80
0000
0000
0000
0000
0000
0000
0000
ENDCHAR

STARTCHAR Lam
ENCODING 153
SWIDTH 857 0
DWIDTH 12 0
BBX 12 23 0 -7
BITMAP
3000
7900
8600
0040
60C0
70E0
7840
3840
0C40
06C0
02C0
0380
0380
06C0
1CC0
1F80
0000
0000
0000
0000
0000
0000
0000
ENDCHAR

STARTCHAR Hamza
ENCODING 154
SWIDTH 857 0
DWIDTH 12 0
BBX 12 23 0 -7
BITMAP
0000
0000
0000
0040
60C0
70E0
7840
3840
0C40
06C0
02C0
0380
0380
06C0
1CC0
1F80
0000
0700
0C00
0D80
0700
0C00
0000
ENDCHAR

STARTCHAR Lam
ENCODING 155
SWIDTH 857 0
DWIDTH 12 0
BBX 12 23 0 -7
BITMAP
0000
0000
0000
0040
60C0
70E0
7840
3840
0C40
06C0
02C0
0380
0380
06C0
1CC0
1F80
0000
0000
0000
0000
0000
0000
0000
ENDCHAR

STARTCHAR Lam
ENCODING 156
SWIDTH 857 0
DWIDTH 12 0
BBX 12 23 0 -7
BITMAP
0000
0000
0000
0200
0600
0600
0600
0600
0600
0600
0600
0600
0600
0700
FBF0
F1F0
0000
0000
0000
0000
0000
0000
0000
ENDCHAR

STARTCHAR Alef
ENCODING 157
SWIDTH 857 0
DWIDTH 12 0
BBX 12 23 0 -7
BITMAP
1C00
3000
3600
1D00
3300
0300
0300
0300
0300
0300
0300
0300
0300
0380
01F0
00F0
0000
0000
0000
0000
0000
0000
0000
ENDCHAR

STARTCHAR Alef
ENCODING 158
SWIDTH 857 0
DWIDTH 12 0
BBX 12 23 0 -7
BITMAP
0600
0F20
10C0
0200
0200
0200
0200
0200
0200
0200
0200
0200
0200
0300
03F0
01F0
0000
0000
0000
0000
0000
0000
0000
ENDCHAR

STARTCHAR Hamza
ENCODING 159
SWIDTH 857 0
DWIDTH 12 0
BBX 12 23 0 -7
BITMAP
0000
0000
0000
0200
0600
0600
0600
0600
0600
0600
0600
0600
0600
0700
03F0
01F0
0000
0380
0600
06C0
0380
0600
0000
ENDCHAR

STARTCHAR Meem
ENCODING 161
SWIDTH 857 0
DWIDTH 12 0
BBX 12 23 0 -7
BITMAP
0000
0000
0000
0000
0000
0000
0000
0000
0000
0000
01C0
03E0
0670
1E30
FF30
F3F0
01E0
0000
0000
0000
0000
0000
0000
ENDCHAR

STARTCHAR Noon
ENCODING 162
SWIDTH 857 0
DWIDTH 12 0
BBX 12 23 0 -7
BITMAP
0000
0000
0000
0000
0000
0000
0200
0700
0200
0000
0020
0070
0030
0030
FFF0
FFE0
0000
0000
0000
0000
0000
0000
0000
ENDCHAR

STARTCHAR Qaf
ENCODING 163
SWIDTH 857 0
DWIDTH 12 0
BBX 12 23 0 -7
BITMAP
0000
0200
1700
3A00
1000
00E0
01F0
01B0
0110
01B0
01F0
00F0
0010
0030
FFF0
FFE0
0000
0000
0000
0000
0000
0000
0000
ENDCHAR

STARTCHAR Yeh
ENCODING 164
SWIDTH 857 0
DWIDTH 12 0
BBX 12 23 0 -7
BITMAP
0000
0000
0000
0000
0000
0000
0000
0000
0000
0000
0020
0070
0030
0030
FFF0
FFE0
0000
0000
0100
0B80
1D00
0800
0000
ENDCHAR

STARTCHAR Seen
ENCODING 165
SWIDTH 857 0
DWIDTH 12 0
BBX 12 23 0 -7
BITMAP
0000
0000
0000
0000
0000
0000
0000
0000
0000
0000
0020
2270
2230
7730
FFF0
99E0
0000
0000
0000
0000
0000
0000
0000
ENDCHAR

STARTCHAR Sheen
ENCODING 166
SWIDTH 857 0
DWIDTH 12 0
BBX 12 23 0 -7
BITMAP
0000
0000
0000
0400
0E00
0400
1100
3B80
1100
0000
0020
2270
2230
7730
FFF0
99E0
0000
0000
0000
0000
0000
0000
0000
ENDCHAR

STARTCHAR Sad
ENCODING 167
SWIDTH 857 0
DWIDTH 12 0
BBX 12 23 0 -7
BITMAP
0000
0000
0000
0000
0000
0000
0000
0000
0000
0000
01E0
23F0
2630
7410
FFF0
9FE0
0800
0800
0000
0000
0000
0000
0000
ENDCHAR

STARTCHAR Dad
ENCODING 168
SWIDTH 857 0
DWIDTH 12 0
BBX 12 23 0 -7
BITMAP
0000
0000
0000
0000
0000
0000
0400
0E00
0400
0000
01E0
23F0
2630
7410
FFF0
9FE0
0800
0800
0000
0000
0000
0000
0000
ENDCHAR

STARTCHAR Shadda
ENCODING 169
SWIDTH 857 0
DWIDTH 12 0
BBX 12 23 0 -7
BITMAP
0000
0000
0000
00C0
0300
0C00
0040
0140
0540
0580
0600
0000
0000
0000
FFF0
FFF0
0000
0000
0000
0000
0000
0000
0000
ENDCHAR

STARTCHAR Jeem
ENCODING 170
SWIDTH 857 0
DWIDTH 12 0
BBX 12 23 0 -7
BITMAP
0000
0000
0000
0000
0000
0000
0000
0000
0000
3800
7E00
4F80
03E0
1FE0
FE00
E000
0000
0400
0E00
0400
0000
0000
0000
ENDCHAR

STARTCHAR Hah
ENCODING 171
SWIDTH 857 0
DWIDTH 12 0
BBX 12 23 0 -7
BITMAP
0000
0000
0000
0000
0000
0000
0000
0000
0000
3800
7E00
4F80
03E0
1FE0
FE00
E000
0000
0000
0000
0000
0000
0000
0000
ENDCHAR

STARTCHAR Arabic
ENCODING 172
SWIDTH 857 0
DWIDTH 12 0
BBX 12 23 0 -7
BITMAP
0000
0000
0000
0000
0000
0000
0000
0000
0000
0100
0200
0400
0E00
0F00
0F00
0600
0000
0000
0000
0000
0000
0000
0000
ENDCHAR

STARTCHAR Ain
ENCODING 173
SWIDTH 857 0
DWIDTH 12 0
BBX 12 23 0 -7
BITMAP
0000
0000
0000
0000
0000
0000
0000
0000
0000
0700
0F80
1F80
0700
0DC0
F8F0
F070
0000
0000
0000
0000
0000
0000
0000
ENDCHAR

STARTCHAR Ghain
ENCODING 174
SWIDTH 857 0
DWIDTH 12 0
BBX 12 23 0 -7
BITMAP
0000
0000
0000
0000
0200
0700
0200
0000
0000
0700
0F80
1F80
0700
0DC0
F8F0
F070
0000
0000
0000
0000
0000
0000
0000
ENDCHAR

STARTCHAR Heh
ENCODING 175
SWIDTH 857 0
DWIDTH 12 0
BBX 12 23 0 -7
BITMAP
0000
0000
0000
0000
0000
0000
0000
0000
0600
0F00
0F00
1900
1300
1600
FFF0
FFF0
1300
1180
1980
0F80
0F00
0600
0000
ENDCHAR

STARTCHAR Arabic
ENCODING 176
SWIDTH 857 0
DWIDTH 12 0
BBX 12 23 0 -7
BITMAP
0000
0000
0000
0000
0000
0000
0000
0000
0200
0700
0F80
0F80
0700
0200
0000
0000
0000
0000
0000
0000
0000
0000
0000
ENDCHAR

STARTCHAR Arabic
ENCODING 177
SWIDTH 857 0
DWIDTH 12 0
BBX 12 23 0 -7
BITMAP
0000
0000
0000
0000
0C00
0E00
0E00
0700
0300
0300
0180
0180
0180
0080
0080
0080
0000
0000
0000
0000
0000
0000
0000
ENDCHAR

STARTCHAR Arabic
ENCODING 178
SWIDTH 857 0
DWIDTH 12 0
BBX 12 23 0 -7
BITMAP
0000
0000
0000
0000
3020
3860
3FC0
1F80
0C00
0C00
0600
0600
0600
0200
0200
0200
0000
0000
0000
0000
0000
0000
0000
ENDCHAR

STARTCHAR Arabic
ENCODING 179
SWIDTH 857 0
DWIDTH 12 0
BBX 12 23 0 -7
BITMAP
0000
0000
0000
0000
2220
3320
3FE0
1EC0
0C00
0C00
0600
0600
0600
0200
0200
0200
0000
0000
0000
0000
0000
0000
0000
ENDCHAR

STARTCHAR Arabic
ENCODING 180
SWIDTH 857 0
DWIDTH 12 0
BBX 12 23 0 -7
BITMAP
0000
0000
0000
0000
0380
0700
0C00
1E00
0F00
0780
0300
0600
0C00
1800
1E00
0FC0
03C0
0000
0000
0000
0000
0000
0000
ENDCHAR

STARTCHAR Arabic
ENCODING 181
SWIDTH 857 0
DWIDTH 12 0
BBX 12 23 0 -7
BITMAP
0000
0000
0000
0000
0000
0000
0F00
1F80
33C0
21C0
20C0
31C0
3F80
1F00
0000
0000
0000
0000
0000
0000
0000
0000
0000
ENDCHAR

STARTCHAR Arabic
ENCODING 182
SWIDTH 857 0
DWIDTH 12 0
BBX 12 23 0 -7
BITMAP
0000
0000
0000
0000
2080
3F80
3F80
1F00
0100
0100
0180
0180
01C0
00E0
00E0
0060
0000
0000
0000
0000
0000
0000
0000
ENDCHAR

STARTCHAR Arabic
ENCODING 183
SWIDTH 857 0
DWIDTH 12 0
BBX 12 23 0 -7
BITMAP
0000
0000
0000
0000
3060
38E0
38E0
1DC0
0D80
0D80
0700
0700
0700
0200
0200
0200
0000
0000
0000
0000
0000
0000
0000
ENDCHAR

STARTCHAR Arabic
ENCODING 184
SWIDTH 857 0
DWIDTH 12 0
BBX 12 23 0 -7
BITMAP
0000
0000
0000
0000
0200
0200
0200
0700
0700
0700
0D80
0D80
1DC0
38E0
38E0
3060
0000
0000
0000
0000
0000
0000
0000
ENDCHAR

STARTCHAR Arabic
ENCODING 185
SWIDTH 857 0
DWIDTH 12 0
BBX 12 23 0 -7
BITMAP
0000
0000
0000
0000
0E00
1F00
3380
2180
3380
3F80
1D80
0180
01C0
00E0
00E0
0060
0000
0000
0000
0000
0000
0000
0000
ENDCHAR

STARTCHAR Ghain
ENCODING 186
SWIDTH 857 0
DWIDTH 12 0
BBX 12 23 0 -7
BITMAP
0000
0000
0000
0000
0200
0700
0200
0000
0000
0700
0F80
1F80
0700
0DC0
18F0
1870
3000
3000
3000
3000
1820
1FC0
0F80
ENDCHAR

STARTCHAR Arabic
ENCODING 187
SWIDTH 857 0
DWIDTH 12 0
BBX 12 23 0 -7
BITMAP
0000
0000
0000
0000
0100
0200
0400
0E00
0F00
0F00
0600
0000
0000
0000
0600
0F00
0F00
0600
0000
0000
0000
0000
0000
ENDCHAR

STARTCHAR Kaf
ENCODING 188
SWIDTH 857 0
DWIDTH 12 0
BBX 12 23 0 -7
BITMAP
0000
0000
0060
01C0
0780
1E00
3800
7000
7000
3800
1E00
0780
01E0
0070
FFF0
FFE0
0000
0000
0000
0000
0000
0000
0000
ENDCHAR

STARTCHAR Lam
ENCODING 189
SWIDTH 857 0
DWIDTH 12 0
BBX 12 23 0 -7
BITMAP
0000
0000
0000
0010
0030
0030
0030
0030
0030
0030
0030
0030
0030
0070
FFF0
FFE0
0000
0000
0000
0000
0000
0000
0000
ENDCHAR

STARTCHAR Hamza
ENCODING 190
SWIDTH 857 0
DWIDTH 12 0
BBX 12 23 0 -7
BITMAP
0000
0000
0000
0020
6060
7060
7860
3CE0
06E0
06E0
03E0
03E0
0360
0670
0C70
1830
7000
0E00
1800
1B00
0E00
1800
0000
ENDCHAR

STARTCHAR Arabic
ENCODING 191
SWIDTH 857 0
DWIDTH 12 0
BBX 12 23 0 -7
BITMAP
0000
0000
0000
0000
0F80
1DC0
38E0
39E0
39E0
38C0
1C00
0E00
0700
0300
0300
0000
0300
0780
0300
0000
0000
0000
0000
ENDCHAR

STARTCHAR Lam
ENCODING 192
SWIDTH 857 0
DWIDTH 12 0
BBX 12 23 0 -7
BITMAP
3000
7900
8600
0020
6060
7060
7860
3CE0
06E0
06E0
03E0
03E0
0360
0660
0C70
1830
7000
0000
0000
0000
0000
0000
0000
ENDCHAR

STARTCHAR Hamza
ENCODING 193
SWIDTH 857 0
DWIDTH 12 0
BBX 12 23 0 -7
BITMAP
0000
0000
0000
0000
0000
0000
0000
0000
0000
0700
0F00
1900
1800
1C80
0F80
1E00
3000
0000
0000
0000
0000
0000
0000
ENDCHAR

STARTCHAR Alef
ENCODING 194
SWIDTH 857 0
DWIDTH 12 0
BBX 12 23 0 -7
BITMAP
0600
0F20
10C0
0000
0200
0600
0600
0600
0600
0600
0600
0600
0600
0600
0600
0600
0400
0000
0000
0000
0000
0000
0000
ENDCHAR

STARTCHAR Alef
ENCODING 195
SWIDTH 857 0
DWIDTH 12 0
BBX 12 23 0 -7
BITMAP
0E00
1800
1B00
0E00
1A00
0600
0600
0600
0600
0600
0600
0600
0600
0600
0600
0600
0400
0000
0000
0000
0000
0000
0000
ENDCHAR

STARTCHAR Waw
ENCODING 196
SWIDTH 857 0
DWIDTH 12 0
BBX 12 23 0 -7
BITMAP
0000
01C0
03C0
0600
0760
03C0
0700
0C00
0000
01C0
01E0
0360
0230
03F0
03F0
01B0
0070
0060
01E0
1FC0
0780
0000
0000
ENDCHAR

STARTCHAR Hamza
ENCODING 197
SWIDTH 857 0
DWIDTH 12 0
BBX 12 23 0 -7
BITMAP
0000
0000
0000
0200
0600
0600
0600
0600
0600
0600
0600
0600
0600
0600
0600
0600
0400
0380
0780
0C00
0EC0
0780
0E00
ENDCHAR

STARTCHAR Yeh
ENCODING 198
SWIDTH 857 0
DWIDTH 12 0
BBX 12 23 0 -7
BITMAP
0000
0000
0000
0700
0F00
1800
1D80
0F00
1C00
3000
0020
0070
0030
0030
FFF0
FFE0
0000
0000
0000
0000
0000
0000
0000
ENDCHAR

STARTCHAR Alef
ENCODING 199
SWIDTH 857 0
DWIDTH 12 0
BBX 12 23 0 -7
BITMAP
0000
0000
0000
0200
0600
0600
0600
0600
0600
0600
0600
0600
0600
0600
0600
0600
0400
0000
0000
0000
0000
0000
0000
ENDCHAR

STARTCHAR Beh
ENCODING 200
SWIDTH 857 0
DWIDTH 12 0
BBX 12 23 0 -7
BITMAP
0000
0000
0000
0000
0000
0000
0000
0000
0000
0000
0020
0070
0030
0030
FFF0
FFE0
0000
0200
0700
0200
0000
0000
0000
ENDCHAR

STARTCHAR Teh
ENCODING 201
SWIDTH 857 0
DWIDTH 12 0
BBX 12 23 0 -7
BITMAP
0000
0000
0000
0000
0880
1DC0
0880
0000
0700
0F80
1FC0
18C0
1040
1840
1FC0
0F80
0000
0000
0000
0000
0000
0000
0000
ENDCHAR

STARTCHAR Teh
ENCODING 202
SWIDTH 857 0
DWIDTH 12 0
BBX 12 23 0 -7
BITMAP
0000
0000
0000
0000
0100
0B80
1D00
0800
0000
0000
0020
0070
0030
0030
FFF0
FFE0
0000
0000
0000
0000
0000
0000
0000
ENDCHAR

STARTCHAR Theh
ENCODING 203
SWIDTH 857 0
DWIDTH 12 0
BBX 12 23 0 -7
BITMAP
0000
0000
0000
0200
0700
0200
0880
1DC0
0880
0000
0020
0070
0030
0030
FFF0
FFE0
0000
0000
0000
0000
0000
0000
0000
ENDCHAR

STARTCHAR Jeem
ENCODING 204
SWIDTH 857 0
DWIDTH 12 0
BBX 12 23 0 -7
BITMAP
0000
0000
0000
0000
0000
0000
0000
0000
0000
0000
1E00
3F00
2380
01E0
FFF0
FFF0
0000
0000
0400
0E00
0400
0000
0000
ENDCHAR

STARTCHAR Hah
ENCODING 205
SWIDTH 857 0
DWIDTH 12 0
BBX 12 23 0 -7
BITMAP
0000
0000
0000
0000
0000
0000
0000
0000
0000
0000
1E00
3F00
2380
01E0
FFF0
FFF0
0000
0000
0000
0000
0000
0000
0000
ENDCHAR

STARTCHAR Khah
ENCODING 206
SWIDTH 857 0
DWIDTH 12 0
BBX 12 23 0 -7
BITMAP
0000
0000
0000
0000
0000
0400
0E00
0400
0000
0000
1E00
3F00
2380
01E0
FFF0
FFF0
0000
0000
0000
0000
0000
0000
0000
ENDCHAR

STARTCHAR Dal
ENCODING 207
SWIDTH 857 0
DWIDTH 12 0
BBX 12 23 0 -7
BITMAP
0000
0000
0000
0000
0000
0000
0000
0180
01C0
01E0
0060
0030
0030
0830
0FF0
07E0
0000
0000
0000
0000
0000
0000
0000
ENDCHAR

STARTCHAR Thal
ENCODING 208
SWIDTH 857 0
DWIDTH 12 0
BBX 12 23 0 -7
BITMAP
0000
0000
0200
0700
0200
0000
0000
0180
01C0
01E0
0060
0030
0030
0830
0FF0
07E0
0000
0000
0000
0000
0000
0000
0000
ENDCHAR

STARTCHAR Ra
ENCODING 209
SWIDTH 857 0
DWIDTH 12 0
BBX 12 23 0 -7
BITMAP
0000
0000
0000
0000
0000
0000
0000
0000
0000
0000
0000
0020
0070
0070
0030
0030
0070
00E0
03E0
3FC0
0F00
0000
0000
ENDCHAR

STARTCHAR Zain
ENCODING 210
SWIDTH 857 0
DWIDTH 12 0
BBX 12 23 0 -7
BITMAP
0000
0000
0000
0000
0000
0000
0080
01C0
0080
0000
0000
0020
0070
0070
0030
0030
0070
00E0
03E0
3FC0
0F00
0000
0000
ENDCHAR

STARTCHAR Seen
ENCODING 211
SWIDTH 857 0
DWIDTH 12 0
BBX 12 23 0 -7
BITMAP
0000
0000
0000
0000
0000
0000
0000
0000
0000
0000
0020
4270
C630
E730
7FF0
79E0
6000
6000
C000
C000
0000
0000
0000
ENDCHAR

STARTCHAR Sheen
ENCODING 212
SWIDTH 857 0
DWIDTH 12 0
BBX 12 23 0 -7
BITMAP
0000
0000
0000
0400
0E00
0400
1100
3B80
1100
0000
0020
4270
C630
E730
7FF0
79E0
6000
6000
C000
C000
0000
0000
0000
ENDCHAR

STARTCHAR Sad
ENCODING 213
SWIDTH 857 0
DWIDTH 12 0
BBX 12 23 0 -7
BITMAP
0000
0000
0000
0000
0000
0000
0000
0000
0000
0000
00E0
01F0
4330
6610
7FF0
3FE0
2400
6400
C000
C000
0000
0000
0000
ENDCHAR

STARTCHAR Dad
ENCODING 214
SWIDTH 857 0
DWIDTH 12 0
BBX 12 23 0 -7
BITMAP
0000
0000
0000
0000
0000
0200
0700
0200
0000
0000
00E0
01F0
4330
6610
7FF0
3FE0
2400
6400
C000
C000
0000
0000
0000
ENDCHAR

STARTCHAR Tah
ENCODING 215
SWIDTH 857 0
DWIDTH 12 0
BBX 12 23 0 -7
BITMAP
0000
0000
1000
3000
7000
7000
3000
3000
3000
3000
31E0
33F0
3630
3C10
FFF0
FFE0
0000
0000
0000
0000
0000
0000
0000
ENDCHAR

STARTCHAR Zah
ENCODING 216
SWIDTH 857 0
DWIDTH 12 0
BBX 12 23 0 -7
BITMAP
0000
0000
1000
3000
7000
7080
31C0
3080
3000
3000
31E0
33F0
3630
3C10
FFF0
FFE0
0000
0000
0000
0000
0000
0000
0000
ENDCHAR

STARTCHAR Ain
ENCODING 217
SWIDTH 857 0
DWIDTH 12 0
BBX 12 23 0 -7
BITMAP
0000
0000
0000
0000
0000
0000
0000
0E00
1C00
3800
3080
3B00
1E00
0C00
1800
1800
3000
3000
3000
3820
1FC0
0F00
0000
ENDCHAR

STARTCHAR Ghain
ENCODING 218
SWIDTH 857 0
DWIDTH 12 0
BBX 12 23 0 -7
BITMAP
0000
0000
0400
0E00
0400
0000
0000
0E00
1C00
3800
3080
3B00
1E00
0C00
1800
1800
3000
3000
3000
3820
1FC0
0F00
0000
ENDCHAR

STARTCHAR Jeem
ENCODING 219
SWIDTH 857 0
DWIDTH 12 0
BBX 12 23 0 -7
BITMAP
0000
0000
0000
0000
0000
0000
0000
0000
0000
3C00
7FC0
8FC0
1F00
3100
31F0
60F0
6200
6700
6200
7020
3FC0
1F00
0000
ENDCHAR

STARTCHAR Hah
ENCODING 220
SWIDTH 857 0
DWIDTH 12 0
BBX 12 23 0 -7
BITMAP
0000
0000
0000
0000
0000
0000
0000
0000
0000
3C00
7FC0
8FC0
1F00
3100
31F0
60F0
6000
6000
6000
7020
3FC0
1F00
0000
ENDCHAR

STARTCHAR Khah
ENCODING 221
SWIDTH 857 0
DWIDTH 12 0
BBX 12 23 0 -7
BITMAP
0000
0000
0000
0000
0200
0700
0200
0000
0000
3C00
7FC0
8FC0
1F00
3100
31F0
60F0
6000
6000
6000
7020
3FC0
1F00
0000
ENDCHAR

STARTCHAR Shadda
ENCODING 222
SWIDTH 857 0
DWIDTH 12 0
BBX 12 23 0 -7
BITMAP
0000
0000
0000
0000
0040
0140
0540
0580
0600
0000
0000
0000
0000
0000
FFF0
FFF0
0000
0000
0000
0000
0000
0000
0000
ENDCHAR

STARTCHAR Yeh
ENCODING 223
SWIDTH 857 0
DWIDTH 12 0
BBX 12 23 0 -7
BITMAP
0000
0000
0E00
1A00
3000
3B00
1E00
3800
6000
0060
11E0
23E0
2600
4600
4780
43C0
40E0
6060
70E0
3FC0
1F80
0000
0000
ENDCHAR

STARTCHAR Tatweel
ENCODING 224
SWIDTH 857 0
DWIDTH 12 0
BBX 12 23 0 -7
BITMAP
0000
0000
0000
0000
0000
0000
0000
0000
0000
0000
0000
0000
0000
0000
FFF0
FFF0
0000
0000
0000
0000
0000
0000
0000
ENDCHAR

STARTCHAR Feh
ENCODING 225
SWIDTH 857 0
DWIDTH 12 0
BBX 12 23 0 -7
BITMAP
0000
0000
0800
1C00
0800
00E0
01F0
01B0
0110
01B0
01F0
00F0
0010
0030
FFF0
FFE0
0000
0000
0000
0000
0000
0000
0000
ENDCHAR

STARTCHAR Qaf
ENCODING 226
SWIDTH 857 0
DWIDTH 12 0
BBX 12 23 0 -7
BITMAP
0000
0000
0000
0000
0080
05C0
0E80
0400
0000
0000
01C0
13E0
2260
2270
43F0
41F0
4030
6030
7070
3FE0
1FC0
0000
0000
ENDCHAR

STARTCHAR Kaf
ENCODING 227
SWIDTH 857 0
DWIDTH 12 0
BBX 12 23 0 -7
BITMAP
0000
0000
0000
0010
0030
0030
01B0
03B0
0630
0730
01B0
23B0
4F30
4030
6070
7FE0
3FC0
0000
0000
0000
0000
0000
0000
ENDCHAR

STARTCHAR Lam
ENCODING 228
SWIDTH 857 0
DWIDTH 12 0
BBX 12 23 0 -7
BITMAP
0000
0000
0000
0010
0030
0070
0070
0030
0030
0030
0030
0830
1030
3030
3030
3070
38E0
1FE0
0F80
0000
0000
0000
0000
ENDCHAR

STARTCHAR Meem
ENCODING 229
SWIDTH 857 0
DWIDTH 12 0
BBX 12 23 0 -7
BITMAP
0000
0000
0000
0000
0000
0000
0000
0000
0000
0380
07C0
0FE0
0CF0
0870
0BF0
07E0
0E00
0C00
0C00
0C00
0600
0600
0300
ENDCHAR

STARTCHAR Noon
ENCODING 230
SWIDTH 857 0
DWIDTH 12 0
BBX 12 23 0 -7
BITMAP
0000
0000
0000
0000
0000
0000
0000
0400
0E00
0400
0000
00C0
10E0
2060
2030
4030
4030
6030
7070
3FE0
0F80
0000
0000
ENDCHAR

STARTCHAR Heh
ENCODING 231
SWIDTH 857 0
DWIDTH 12 0
BBX 12 23 0 -7
BITMAP
0000
0000
0000
0000
0000
0000
0000
0000
0700
0F80
1FC0
18C0
1040
1840
1FC0
0F80
0000
0000
0000
0000
0000
0000
0000
ENDCHAR

STARTCHAR Waw
ENCODING 232
SWIDTH 857 0
DWIDTH 12 0
BBX 12 23 0 -7
BITMAP
0000
0000
0000
0000
0000
0000
0000
0000
0000
01C0
01E0
0360
0230
0370
03F0
01F0
0070
0060
01E0
1FC0
0780
0000
0000
ENDCHAR

STARTCHAR Alef
ENCODING 233
SWIDTH 857 0
DWIDTH 12 0
BBX 12 23 0 -7
BITMAP
0000
0000
0000
0000
0000
0000
0000
0000
0000
0060
11E0
23E0
2600
4600
4780
43C0
40E0
6060
70E0
3FC0
1F80
0000
0000
ENDCHAR

STARTCHAR Yeh
ENCODING 234
SWIDTH 857 0
DWIDTH 12 0
BBX 12 23 0 -7
BITMAP
0000
0000
0000
0000
0000
0000
0000
0000
0000
0060
11E0
23E0
2600
4600
47C0
43E0
4060
60E0
7FC0
3F80
1100
3B80
1100
ENDCHAR

STARTCHAR Fathatan
ENCODING 235
SWIDTH 857 0
DWIDTH 12 0
BBX 12 23 0 -7
BITMAP
0000
0000
0000
00C0
0300
0CC0
0300
0C00
0000
0000
0000
0000
0000
0000
0000
0000
0000
0000
0000
0000
0000
0000
0000
ENDCHAR

STARTCHAR Dammatan
ENCODING 236
SWIDTH 857 0
DWIDTH 12 0
BBX 12 23 0 -7
BITMAP
0000
0000
0000
0000
00C0
0140
19C0
2CE0
0B80
0E00
1800
0000
0000
0000
0000
0000
0000
0000
0000
0000
0000
0000
0000
ENDCHAR

STARTCHAR Kasratan
ENCODING 237
SWIDTH 857 0
DWIDTH 12 0
BBX 12 23 0 -7
BITMAP
0000
0000
0000
0000
0000
0000
0000
0000
0000
0000
0000
0000
0000
0000
0000
0000
0000
00C0
0300
0CC0
0300
0C00
0000
ENDCHAR

STARTCHAR Fatha
ENCODING 238
SWIDTH 857 0
DWIDTH 12 0
BBX 12 23 0 -7
BITMAP
0000
0000
0000
00C0
0300
0C00
0000
0000
0000
0000
0000
0000
0000
0000
0000
0000
0000
0000
0000
0000
0000
0000
0000
ENDCHAR

STARTCHAR Damma
ENCODING 239
SWIDTH 857 0
DWIDTH 12 0
BBX 12 23 0 -7
BITMAP
0000
0000
0000
00C0
0140
01C0
00E0
0380
0E00
0000
0000
0000
0000
0000
0000
0000
0000
0000
0000
0000
0000
0000
0000
ENDCHAR

STARTCHAR Kasra
ENCODING 240
SWIDTH 857 0
DWIDTH 12 0
BBX 12 23 0 -7
BITMAP
0000
0000
0000
0000
0000
0000
0000
0000
0000
0000
0000
0000
0000
0000
0000
0000
0000
0000
0000
00C0
0300
0C00
0000
ENDCHAR

STARTCHAR Shadda
ENCODING 241
SWIDTH 857 0
DWIDTH 12 0
BBX 12 23 0 -7
BITMAP
0000
0000
0000
0040
0140
0540
0580
0600
0000
0000
0000
0000
0000
0000
0000
0000
0000
0000
0000
0000
0000
0000
0000
ENDCHAR

STARTCHAR Sukun
ENCODING 242
SWIDTH 857 0
DWIDTH 12 0
BBX 12 23 0 -7
BITMAP
0000
0000
0000
0180
0240
0240
0180
0000
0000
0000
0000
0000
0000
0000
0000
0000
0000
0000
0000
0000
0000
0000
0000
ENDCHAR

STARTCHAR Ain
ENCODING 243
SWIDTH 857 0
DWIDTH 12 0
BBX 12 23 0 -7
BITMAP
0000
0000
0000
0000
0000
0000
0000
0000
0E00
1F00
3000
3000
3980
1F80
FE00
F800
0000
0000
0000
0000
0000
0000
0000
ENDCHAR

STARTCHAR Ghain
ENCODING 244
SWIDTH 857 0
DWIDTH 12 0
BBX 12 23 0 -7
BITMAP
0000
0000
0000
0800
1C00
0800
0000
0000
0E00
1F00
3000
3000
3980
1F80
FE00
F800
0000
0000
0000
0000
0000
0000
0000
ENDCHAR

STARTCHAR Heh
ENCODING 245
SWIDTH 857 0
DWIDTH 12 0
BBX 12 23 0 -7
BITMAP
0000
0000
0000
0000
0000
0000
1000
3800
3C00
1E00
1700
2300
3580
1880
FF80
E700
0000
0000
0000
0000
0000
0000
0000
ENDCHAR

STARTCHAR Shadda
ENCODING 246
SWIDTH 857 0
DWIDTH 12 0
BBX 12 23 0 -7
BITMAP
0000
0000
00C0
0300
0C00
0040
0140
0540
0580
0600
0000
0000
0000
0000
0000
0000
0000
0000
0000
0000
0000
0000
0000
ENDCHAR

STARTCHAR Shadda
ENCODING 247
SWIDTH 857 0
DWIDTH 12 0
BBX 12 23 0 -7
BITMAP
0000
0000
0000
0180
0280
0380
01C0
0700
1C80
0280
0A80
0B00
0C00
0000
0000
0000
0000
0000
0000
0000
0000
0000
0000
ENDCHAR

STARTCHAR Kasra
ENCODING 248
SWIDTH 857 0
DWIDTH 12 0
BBX 12 23 0 -7
BITMAP
0000
0000
0080
0280
0A80
0B00
0C00
00C0
0300
0C00
0000
0000
0000
0000
0000
0000
0000
0000
0000
0000
0000
0000
0000
ENDCHAR

STARTCHAR Shadda
ENCODING 249
SWIDTH 857 0
DWIDTH 12 0
BBX 12 23 0 -7
BITMAP
0000
00C0
0140
01C0
00E0
0380
0E00
0040
0140
0540
0580
0600
0000
0000
FFF0
FFF0
0000
0000
0000
0000
0000
0000
0000
ENDCHAR

STARTCHAR Kasra
ENCODING 250
SWIDTH 857 0
DWIDTH 12 0
BBX 12 23 0 -7
BITMAP
0000
0000
0000
0080
0280
0A80
0B00
0C00
00C0
0300
0C00
0000
0000
0000
FFF0
FFF0
0000
0000
0000
0000
0000
0000
0000
ENDCHAR

STARTCHAR Fatha
ENCODING 251
SWIDTH 857 0
DWIDTH 12 0
BBX 12 23 0 -7
BITMAP
0000
0000
0000
0000
00C0
0300
0C00
0000
0000
0000
0000
0000
0000
0000
FFF0
FFF0
0000
0000
0000
0000
0000
0000
0000
ENDCHAR

STARTCHAR Damma
ENCODING 252
SWIDTH 857 0
DWIDTH 12 0
BBX 12 23 0 -7
BITMAP
0000
0000
0000
00C0
0140
01C0
00E0
0380
0E00
0000
0000
0000
0000
0000
FFF0
FFF0
0000
0000
0000
0000
0000
0000
0000
ENDCHAR

STARTCHAR Kasra
ENCODING 253
SWIDTH 857 0
DWIDTH 12 0
BBX 12 23 0 -7
BITMAP
0000
0000
0000
0000
0000
0000
0000
0000
0000
0000
0000
0000
0000
0000
FFF0
FFF0
0000
0000
0000
00C0
0300
0C00
0000
ENDCHAR

STARTCHAR Sukun
ENCODING 254
SWIDTH 857 0
DWIDTH 12 0
BBX 12 23 0 -7
BITMAP
0000
0000
0000
0180
0240
0240
0180
0000
0000
0000
0000
0000
0000
0000
FFF0
FFF0
0000
0000
0000
0000
0000
0000
0000
ENDCHAR
ENDFONT
